<svg version="1.1" id="Capa_1" xmlns="http://www.w3.org/2000/svg" x="0" y="0" viewBox="0 0 512 512" xml:space="preserve"><style>.st0{fill:#d6a354}</style><path class="st0" d="M484.7 199h-76.2v-19.7c0-5.1-4.2-9.3-9.3-9.3H198.3c-5.1 0-9.3 4.2-9.3 9.3s4.2 9.3 9.3 9.3h191.6v71.3c0 62.6-33.5 120.8-87.4 152.5H124c-54-31.7-87.5-89.9-87.5-152.5v-71.3h62.3c5.1 0 9.3-4.2 9.3-9.3s-4.2-9.3-9.3-9.3H27.2c-5.1 0-9.3 4.2-9.3 9.3v80.6c0 35.1 9.5 69.6 27.3 99.7 12.1 20.3 27.7 38.1 46 52.8h-64c-5.1 0-9.3 4.2-9.3 9.3 0 33.8 27.5 61.4 61.4 61.4h290.1c33.8 0 61.4-27.5 61.4-61.4 0-5.1-4.2-9.3-9.3-9.3h-86.4c16.8-13.5 31.4-29.8 43.1-48.1h26.2c49.4 0 89.5-40.2 89.5-89.5v-66.5c.1-5.1-4-9.3-9.2-9.3zm-73.5 232c-4.3 19.2-21.4 33.5-41.8 33.5H79.3c-20.4 0-37.5-14.3-41.8-33.5h373.7zm-2.7-171.1v-5.1h29.8v20c0 18.6-15.2 33.8-33.8 33.8h-2.1c4-15.9 6.1-32.3 6.1-48.7zm66.9 14.9c0 39.1-31.8 70.9-70.9 70.9h-15.8c3-6 5.6-12.3 7.9-18.6h7.9c28.9 0 52.4-23.5 52.4-52.4v-29.3c0-5.1-4.2-9.3-9.3-9.3h-39.1v-18.6h67v57.3zM222.1 58.4l-4.8-6c-7.1-8.9-7.1-21.4 0-30.3 3.2-4 2.5-9.9-1.5-13s-9.9-2.5-13.1 1.5a42.85 42.85 0 0 0 0 53.5l4.8 6c9.3 11.6 9.3 27.9 0 39.6l-4.9 6.2c-3.2 4-2.5 9.9 1.5 13 1.7 1.4 3.7 2 5.8 2 2.7 0 5.5-1.2 7.3-3.5l4.9-6.2c14.7-18.6 14.7-44.3 0-62.8zM273.7 79.3l-4.8-6c-7.1-8.9-7.1-21.4 0-30.3 3.2-4 2.5-9.9-1.5-13-4-3.2-9.9-2.5-13.1 1.5a42.85 42.85 0 0 0 0 53.5l4.8 6c9.3 11.6 9.3 27.9 0 39.6l-4.9 6.2c-3.2 4-2.5 9.9 1.5 13 1.7 1.4 3.7 2 5.8 2 2.7 0 5.5-1.2 7.3-3.5l4.9-6.2c14.7-18.5 14.7-44.3 0-62.8zM170.5 79.3l-4.8-6c-7.1-8.9-7.1-21.4 0-30.3 3.2-4 2.5-9.9-1.5-13-4-3.2-9.9-2.5-13.1 1.5-12.5 15.7-12.5 37.8.1 53.5l4.8 6c9.3 11.6 9.3 27.9 0 39.6l-4.9 6.2c-3.2 4-2.5 9.9 1.5 13.1 1.7 1.4 3.7 2 5.8 2 2.7 0 5.5-1.2 7.3-3.5l4.9-6.2c14.7-18.6 14.6-44.4-.1-62.9z"/><path class="st0" d="M157.7 172.8c-1.8-1.8-4.1-2.7-6.6-2.7s-4.8 1-6.6 2.7c-1.8 1.8-2.7 4.1-2.7 6.6s1 4.8 2.7 6.6c1.8 1.8 4.1 2.7 6.6 2.7s4.8-1 6.6-2.7c1.8-1.8 2.7-4.1 2.7-6.6 0-2.6-1-5-2.7-6.6zM354.6 250.6c-5.1 0-9.3 4.2-9.3 9.3 0 34.5-14 68.4-38.4 93.1-3.6 3.6-3.6 9.6.1 13.1 1.9 1.8 4.2 2.7 6.5 2.7 2.4 0 4.7-.9 6.6-2.8 27.8-28 43.8-66.7 43.8-106.1 0-5.1-4.2-9.3-9.3-9.3zM291.2 378.2c-2.5-4.5-8.2-6-12.6-3.5l-.2.1c-4.5 2.5-6 8.2-3.5 12.6 1.7 3.1 4.8 4.7 8.1 4.7 1.6 0 3.2-.4 4.6-1.2l.2-.1c4.4-2.5 5.9-8.2 3.4-12.6z"/></svg>