<svg xmlns="http://www.w3.org/2000/svg" width="48" height="48" viewBox="0 0 48 48"><g><g><g><path fill="#357fd6" d="M26.571 25.714h-7.714v-12h7.714c3.311 0 6 2.69 6 6 0 3.311-2.689 6-6 6zm-.417-15.439h-9.868a.86.86 0 0 0-.857.857v25.705a.86.86 0 0 0 .857.857H18a.86.86 0 0 0 .857-.857v-7.712h7.714c5.508 0 9.933-4.744 9.386-10.367-.471-4.895-4.875-8.483-9.803-8.483zM44.57 42.857a1.72 1.72 0 0 1-1.714 1.714H5.143a1.72 1.72 0 0 1-1.714-1.714V5.143a1.72 1.72 0 0 1 1.714-1.714h37.714a1.72 1.72 0 0 1 1.714 1.714zM42.857 0H5.143A5.144 5.144 0 0 0 0 5.143v37.714A5.144 5.144 0 0 0 5.143 48h37.714A5.144 5.144 0 0 0 48 42.857V5.143A5.144 5.144 0 0 0 42.857 0z"/></g></g></g></svg>